<?xml version="1.0" standalone="no"?>
<!DOCTYPE svg PUBLIC "-//W3C//DTD SVG 20010904//EN"
 "http://www.w3.org/TR/2001/REC-SVG-20010904/DTD/svg10.dtd">
<svg version="1.0" xmlns="http://www.w3.org/2000/svg"
 width="300.000000pt" height="295.000000pt" viewBox="0 0 300.000000 295.000000"
 preserveAspectRatio="xMidYMid meet">
<metadata>
Created by potrace 1.10, written by Peter Selinger 2001-2011
</metadata>
<g transform="translate(0.000000,295.000000) scale(0.100000,-0.100000)"
fill="#000000" stroke="none">
<path d="M1469 2926 c-2 -2 -29 -7 -59 -10 -30 -3 -80 -10 -110 -16 -30 -5
-73 -12 -95 -14 -303 -37 -670 -272 -876 -562 -203 -285 -298 -652 -254 -984
30 -227 92 -413 194 -585 207 -348 508 -565 914 -661 97 -23 135 -27 287 -28
195 -1 231 3 392 44 527 133 943 588 1037 1133 29 166 33 239 21 372 -50 563
-431 1043 -975 1230 -143 49 -455 102 -476 81z m233 -62 c318 -53 576 -189
796 -419 331 -346 462 -835 347 -1293 -97 -383 -360 -715 -716 -901 -132 -69
-267 -110 -481 -146 -43 -7 -263 -7 -323 0 -67 8 -266 61 -350 94 -388 150
-697 499 -821 925 -92 318 -61 682 83 971 97 195 283 411 458 533 195 135 368
201 630 241 141 22 225 20 377 -5z"/>
<path d="M1082 2444 c-43 -30 -82 -132 -96 -254 -7 -55 -8 -253 -2 -270 3 -8
7 -37 9 -65 11 -121 57 -212 114 -229 45 -12 79 12 111 82 34 76 50 155 58
292 17 290 -84 521 -194 444z m110 -66 c15 -24 16 -27 42 -118 22 -75 23 -331
2 -415 -28 -113 -38 -137 -67 -166 -38 -37 -58 -37 -94 1 -16 17 -25 30 -21
30 5 0 4 6 -3 13 -35 43 -58 280 -42 447 15 153 42 225 96 256 23 13 61 -8 87
-48z"/>
<path d="M1835 2427 c-23 -23 -41 -58 -61 -117 -26 -80 -27 -96 -28 -260 0
-150 3 -186 22 -255 52 -188 148 -229 216 -92 39 78 69 277 61 397 -21 285
-111 426 -210 327z m75 3 c0 -5 6 -10 14 -10 16 0 57 -83 77 -155 20 -73 18
-357 -4 -454 -29 -131 -90 -190 -143 -140 -13 12 -24 28 -24 36 0 7 -4 13 -8
13 -20 0 -46 149 -50 285 -4 138 11 299 29 311 5 3 9 14 9 25 0 11 17 38 38
59 36 38 62 51 62 30z"/>
<path d="M2360 1462 c-22 -18 -23 -22 -12 -46 11 -24 16 -26 47 -20 l35 6 0
-49 c0 -113 -84 -322 -181 -446 -105 -136 -293 -258 -484 -313 -123 -36 -331
-44 -455 -19 -210 43 -358 121 -501 264 -147 147 -229 306 -248 484 l-7 68 27
-6 c30 -7 62 17 57 43 -9 45 -149 52 -226 13 -48 -24 -55 -40 -33 -68 16 -19
20 -20 54 -8 l37 13 0 -32 c0 -59 50 -221 99 -321 96 -193 250 -347 446 -445
146 -73 265 -102 435 -104 148 -1 191 3 295 29 356 90 623 319 725 625 23 69
47 192 46 232 -1 23 0 24 36 14 31 -8 41 -7 53 5 39 39 -37 88 -149 96 -61 5
-74 3 -96 -15z m159 -25 c12 -9 13 -9 7 1 -10 17 -3 15 22 -7 30 -25 28 -31
-13 -31 -19 0 -35 -3 -35 -7 -1 -15 -20 -148 -26 -176 -3 -15 -9 -25 -13 -22
-5 2 -6 -7 -3 -20 2 -15 0 -25 -7 -25 -7 0 -9 -4 -6 -10 5 -8 -49 -128 -86
-189 -33 -55 -158 -187 -224 -236 -22 -16 -46 -35 -53 -41 -6 -7 -22 -16 -34
-20 -12 -4 -28 -13 -36 -20 -7 -8 -18 -12 -23 -9 -5 4 -9 2 -9 -3 0 -13 -50
-33 -62 -26 -6 4 -8 3 -5 -3 4 -6 -20 -18 -56 -28 -74 -22 -66 -19 -97 -32
-88 -37 -359 -47 -490 -19 -117 26 -292 97 -321 132 -6 8 -16 14 -21 14 -17 0
-122 86 -179 147 -133 142 -215 304 -245 482 -15 91 -33 123 -57 102 -8 -6
-22 -8 -31 -5 -16 6 -16 8 0 26 10 10 24 16 31 14 7 -3 13 -1 13 5 0 6 30 9
75 8 81 -2 93 -14 35 -33 -46 -15 -48 -42 -14 -171 14 -55 27 -108 27 -117 1
-9 4 -15 7 -13 4 2 17 -22 30 -53 13 -31 26 -59 30 -62 3 -3 26 -34 52 -70 61
-86 188 -205 248 -232 16 -7 30 -15 30 -18 0 -3 20 -14 45 -24 25 -11 45 -22
45 -26 0 -4 6 -7 13 -7 10 0 84 -24 157 -51 8 -3 28 -7 45 -9 16 -3 34 -8 40
-13 15 -11 391 -2 379 9 -8 8 89 29 105 23 9 -3 12 -1 7 6 -6 11 19 18 47 13
4 0 7 4 7 10 0 6 7 9 15 5 8 -3 15 -2 15 3 0 12 50 32 62 25 7 -4 8 -2 4 5 -5
7 3 13 23 17 17 4 29 10 26 14 -2 4 7 12 21 18 33 16 119 81 169 129 63 59
165 217 190 293 1 3 7 18 14 34 6 16 16 49 22 74 5 25 13 50 16 55 10 17 9
128 -2 137 -5 4 -21 10 -35 12 -14 1 -23 7 -20 13 3 5 14 8 25 7 17 -2 18 -1
5 8 -11 9 -3 10 35 5 28 -4 56 -12 64 -18z"/>
</g>
</svg>
